<?xml version="1.0" encoding="utf-8"?>
<!-- Generator: Adobe Illustrator 26.4.1, SVG Export Plug-In . SVG Version: 6.00 Build 0)  -->
<svg version="1.1" id="Layer_1" xmlns="http://www.w3.org/2000/svg" xmlns:xlink="http://www.w3.org/1999/xlink" x="0px" y="0px"
	 viewBox="0 0 2000 300" style="enable-background:new 0 0 2000 300;" xml:space="preserve">
<style type="text/css">
	.st0{fill:#A5998F;}
	.st1{fill:#242424;}
	.st2{fill:#F0ECE6;}
	.st3{fill:#FBFAF8;}
	.st4{fill:#AC8B55;}
	.st5{fill:#FDF9DF;}
	.st6{fill:#484440;}
	.st7{fill:#FFFFFF;}
</style>
<g>
	<path d="M204.3,224.9L136.1,49.4l-2.9-1.4c-0.6,6.3-3.1,12.3-6.3,14.3L62.3,224.9C56,240.3,53.7,242.3,36,244v3.1h53V244
		c-13.2-1.1-22.9-2-22.9-10c0-2.6,3.1-11.7,5.2-16.9c5.4-14,11.7-30.1,18-46.9h84.4c6.9,17.5,12.6,32.9,18.6,48.1
		c2.6,6.6,5.2,12,5.2,15.5c0,9.2-12.3,9.4-25.2,10.3v3.1h58.4V244C213.1,242.6,210,240,204.3,224.9z M90.9,165.6
		c13.2-34.1,27.5-71.3,39.8-101.3h1.1c16.9,41.8,29.5,73.9,40.1,101.3H90.9z"/>
	<path d="M377.1,55.7c17.2,2.3,24.6,4.6,25.8,15.5c1.4,12.9,0,100.8,0,166.6h-1.4L283.7,52.5h-36.4v3.1c20.3,2.9,25.2,8.6,26,33.5
		c0.6,15.5,1.1,87.6-2.3,140.8c-0.6,8.9-7.2,11.2-23.5,14v3.1h57.5V244c-18-2.9-25.5-5.7-25.5-14l-0.3-166.6h1.4l120.5,188.3h6.6
		c-0.3-45.5,1.1-163.4,2.3-180.6c0.9-11.2,6.6-12.6,23.5-15.5v-3.1h-56.7V55.7z"/>
	<path d="M567.1,163c14.9,0,27.2,2.6,27.2,16.9v39.5c0,18.6-17.2,25.2-49.2,25.2c-52.1,0-87.6-40.4-87.6-103
		c0-52.4,40.9-86.4,75.9-86.4c30.1,0,55.8,9.4,66.1,40.7l2.9-0.9L595.1,58c-21.5-5.4-40.9-10-60.7-10c-41.8,0-85.6,37.8-85.6,100.8
		c0,67.8,51.2,103.3,93.6,103.3c20,0,38.6-3.7,58.1-8.6l2.9-2.9c-0.6-5.7-0.6-10.6-0.6-15.7v-44.9c0-14.3,8.9-16.9,23.5-16.9v-3.1
		h-59.3V163z"/>
	<path d="M723.6,242.6H693c-15.5,0-23.5-1.4-23.5-12.6v-81.3h37.2c18.3,0,27.8,2,30.6,24.3h2.6v-53.2h-2.6
		c-2.9,22.3-12.3,24.3-30.6,24.3h-37.2V69.7c0-11.2,8-12.6,23.5-12.6h22c30.1,0,37.8,8.6,48.1,36.9l2.6-0.9l-7.2-40.6H637.7v3.1
		c16.3,2.9,23.5,5.7,23.5,22.6v143.1c0,16.9-10,19.8-26.3,22.6v3.1h132.2l7.2-40.6l-2.6-0.9C761.4,234,753.7,242.6,723.6,242.6z"/>
	<path d="M1055.2,224.9L987.1,49.4l-2.9-1.4c-0.6,6.3-3.1,12.3-6.3,14.3l-61.4,154.4c-8.5,18.8-18,26-43,26h-22
		c-15.5,0-23.5-0.3-23.5-14.3v-158c0-11.7,10.9-11.7,26.3-14.6v-3.1h-58.1v3.1c16.3,2.9,23.5,2.9,23.5,14.6v151.4
		c0,16.6-10,19.5-26.3,22.3v3.1h146.5V244c-13.2-1.1-22.9-2-22.9-10c0-2.6,3.1-11.7,5.2-16.9c5.4-14,11.7-30.1,18-46.9h84.4
		c6.9,17.5,12.6,32.9,18.6,48.1c2.6,6.6,5.2,12,5.2,15.5c0,9.2-12.3,9.4-25.2,10.3v3.1h58.4V244
		C1064.1,242.6,1060.9,240,1055.2,224.9z M941.9,165.6c13.2-34.1,27.5-71.3,39.8-101.3h1.1c16.9,41.8,29.5,73.9,40.1,101.3H941.9z"
		/>
	<path d="M1255.8,155c-12.9-7.4-26.6-16-39.2-23.5c-20.3-12-34.1-21.2-34.1-40.9c0-22.9,18.6-36.6,39.5-36.6
		c20.6,0,37.2,14,48.7,44.9l2.9-0.9c-1.4-16.3-4.9-24.3-6.9-37.5c-15.5-7.4-26-12.6-40.6-12.6c-28.9,0-50.4,19.8-50.4,44.7
		c0,23.5,19.5,35.8,35.8,45.5l41.2,24.3c11.2,6.6,25.2,16.6,25.2,37.5c0,26-21.5,46.4-51.5,46.4c-20.3,0-40.9-9.4-55.8-54.4
		l-2.9,0.9c1.4,19.2,5.2,28.9,9.7,44.4c14.9,10.3,30.1,14.6,45.8,14.6c36.9,0,62.1-23.2,62.1-54.4
		C1285.3,172.2,1268.7,162.7,1255.8,155z"/>
	<path d="M1388.6,242.6H1358c-15.5,0-23.5-1.4-23.5-12.6v-81.3h37.2c18.3,0,27.8,2,30.6,24.3h2.6v-53.2h-2.6
		c-2.9,22.3-12.3,24.3-30.6,24.3h-37.2V69.7c0-11.2,8-12.6,23.5-12.6h22c30.1,0,37.8,8.6,48.1,36.9l2.6-0.9l-7.2-40.6h-120.8v3.1
		c16.3,2.9,23.5,5.7,23.5,22.6v143.1c0,16.9-10,19.8-26.3,22.6v3.1h132.2l7.2-40.6l-2.6-0.9C1426.4,234,1418.7,242.6,1388.6,242.6z"
		/>
	<path d="M1576.1,163c14.9,0,27.2,2.6,27.2,16.9v39.5c0,18.6-17.2,25.2-49.2,25.2c-52.1,0-87.6-40.4-87.6-103
		c0-52.4,40.9-86.4,75.9-86.4c30.1,0,55.8,9.4,66.1,40.7l2.9-0.9l-7.2-36.9c-21.5-5.4-40.9-10-60.7-10c-41.8,0-85.6,37.8-85.6,100.8
		c0,67.8,51.2,103.3,93.6,103.3c20,0,38.6-3.7,58.1-8.6l2.9-2.9c-0.6-5.7-0.6-10.6-0.6-15.7v-44.9c0-14.3,8.9-16.9,23.5-16.9v-3.1
		h-59.3V163z"/>
	<path d="M1961.5,204c-10.3,28.3-18,38.6-48.1,38.6h-22c-15.5,0-23.5-0.3-23.5-14.3v-158c0-11.7,10.9-11.7,26.3-14.6v-3.1h-58.1v3.1
		c16.3,2.9,23.5,2.9,23.5,14.6v151.4c0,16.6-10.1,20.9-26.6,22.3c-0.2,0-0.4,0-0.6,0c-17.5-0.7-20.6-4-26.3-19.2l-68.1-175.5
		l-2.9-1.4c-0.6,6.3-3.1,12.3-6.3,14.3l-64.7,162.6c-6.3,15.5-8.6,17.5-26.3,19.2v3.1h53V244c-13.2-1.1-22.9-2-22.9-10
		c0-2.6,3.1-11.7,5.2-16.9c5.4-14,11.7-30.1,18-46.9h84.4c6.9,17.5,12.6,32.9,18.6,48.1c2.6,6.6,5.2,12,5.2,15.5
		c0,9.2-12.3,9.4-25.2,10.3v3.1h182.9l7.2-42.4L1961.5,204z M1692.7,165.6c13.2-34.1,27.5-71.3,39.8-101.3h1.1
		c16.9,41.8,29.5,73.9,40.1,101.3H1692.7z"/>
</g>
</svg>
