<?xml version="1.0" encoding="utf-8"?>
<!-- Generator: Adobe Illustrator 26.4.1, SVG Export Plug-In . SVG Version: 6.00 Build 0)  -->
<svg version="1.1" id="Layer_1" xmlns="http://www.w3.org/2000/svg" xmlns:xlink="http://www.w3.org/1999/xlink" x="0px" y="0px"
	 viewBox="0 0 1000 1000" style="enable-background:new 0 0 1000 1000;" xml:space="preserve">
<style type="text/css">
	.st0{fill:#A5998F;}
	.st1{fill:#F0ECE6;}
	.st2{fill:#FBFAF8;}
	.st3{fill:#AC8B55;}
	.st4{fill:#FDF9DF;}
	.st5{fill:#242424;}
	.st6{fill:#484440;}
	.st7{fill:#FFFFFF;}
</style>
<path id="mark" d="M500,84C270.6,84,84,270.6,84,500c0,229.4,186.6,416,416,416c229.4,0,416-186.6,416-416
	C916,270.6,729.4,84,500,84z M376.3,212.5c50.6,32.5,65.4,100.3,32.8,150.9c-12.4,19.4-31.7,32.8-54.2,37.7
	c-22.5,4.9-45.6,0.7-65-11.7l-5.8,9c21.8,14,47.7,18.6,73.1,13.2c25.3-5.5,46.9-20.6,60.9-42.3c35.7-55.6,19.6-129.9-36-165.7
	c-48.1-30.8-107.4-30.4-153.9-3.9c72-65.2,167.4-105,271.9-105c114.5,0,218,47.7,291.8,124.2c-26-17.5-56.9-28.6-90.4-30.8
	c-87.4-5.8-169.2,37.7-213.3,113.6c-5.9,10.3-93.7,177.9-93.7,177.9l-16.9,30.3c-3,1-6.1,2.1-9.3,3.2c-61.4,16.7-108-4.8-130.2-19.1
	c-39-25.1-65.9-63.8-75.8-109.1c-9.9-45.3-1.5-91.8,23.6-130.8C226.9,190.1,312.4,171.4,376.3,212.5z M566.1,484.8l38.5,68.8
	c-36-30.7-80.5-49.4-128.6-53.4l0,0c-1.4-0.1-3-0.3-4.3-0.4c-1.5-0.1-3.1-0.2-4.7-0.3l-0.6,0c-30-1.5-51.5,0-74.4,6l11.7-20.9
	L485,333.2L566.1,484.8z M489.7,904.6c-36.7-2.4-70.3-19-94.6-46.7c-24.3-27.7-36.3-63.2-33.8-100c1.9-29.1,15.1-55.7,37-74.9
	c22-19.2,50.1-28.8,79.2-26.8c47.5,3.1,83.6,44.3,80.4,91.8h10.6c1.7-25.8-6.7-50.1-23.8-69.6c-17.1-19.5-40.7-31.2-66.5-32.9
	c-32-2.1-62.8,8.3-86.9,29.4c-24.1,21.1-38.5,50.3-40.6,82.2C348,796.8,361,835,387.1,864.9c12.7,14.6,27.9,26.2,44.6,34.7
	C240.6,867,94.6,700.2,94.6,500c0-82.4,24.7-159.2,67.2-223.2c-14.6,34.6-18.1,72.8-10,110.3c10.5,48.1,39,89.2,80.5,115.8
	c17.6,11.3,49.5,26.9,91.5,26.9c14.2,0,29.6-1.8,46-6.1l-68.2,121.9l9.3,5.2l73.8-132c25.9-8,48.2-10.2,81.2-8.5l0.6,0
	c1.4,0.1,2.9,0.1,4.4,0.3c1.3,0.1,2.7,0.2,4,0.3h0.1c58.1,4.9,111.6,31.6,148.4,77C640,608,652,627,660.3,650
	c10.7,29.5,16.2,61.1,14.1,92.9C668.1,838.4,585.3,911,489.7,904.6z M581.7,897.1c57.5-28,98.9-85.3,103.4-153.5
	c2.4-36.6-4-73.4-18.5-106.5c-8.5-19.7-19.8-38.2-33.7-54.8l-57.4-102.6l-85.3-159.3c2.2-4.5,4.6-8.9,7.2-13.4
	c42-72.3,120.1-113.7,203.3-108.3c95.5,6.3,168.1,89.2,161.8,184.8c-2.4,36.7-19,70.3-46.7,94.6c-27.7,24.2-63.2,36.3-99.9,33.8
	c-60.1-4-105.8-56.1-101.8-116.2c1.5-23,11.9-44,29.3-59.2c17.3-15.2,40.3-22.8,63.3-21.2v-10.6c-25.8-1.7-50.8,6.7-70.3,23.8
	c-19.5,17.1-31.2,40.7-32.9,66.5c-4.4,66,45.7,123.2,111.7,127.5c3.4,0.2,6.7,0.3,10,0.3c35.9,0,70.3-12.9,97.6-36.8
	c29.9-26.1,47.7-62.3,50.4-101.9c1.2-17.6-0.2-34.7-3.7-51.2c23.1,50.9,36,107.5,36,167C905.4,695.5,766.2,859.2,581.7,897.1z"/>
</svg>
