<svg width="44" height="45" viewBox="0 0 44 45" fill="none" xmlns="http://www.w3.org/2000/svg">
<circle cx="21.8112" cy="22.6269" r="21.6915" fill="white"/>
<path d="M30.4708 22.5593C30.4824 22.5806 30.4884 22.6045 30.4881 22.6287C30.4882 22.6526 30.4822 22.6761 30.4708 22.697C30.4559 22.7218 30.4345 22.7421 30.4089 22.7556L17.7552 30.1926C17.6901 30.2316 17.6207 30.2305 17.5567 30.1947C17.5304 30.181 17.5081 30.1608 17.4916 30.1362C17.4784 30.1147 17.472 30.0897 17.4732 30.0646L17.4732 15.1929C17.472 15.1677 17.4784 15.1427 17.4916 15.1213C17.5081 15.0966 17.5304 15.0765 17.5567 15.0627C17.5868 15.0448 17.6212 15.0356 17.6562 15.036C17.6912 15.0363 17.7255 15.0464 17.7552 15.0649L30.4089 22.5007C30.4345 22.5143 30.4558 22.5345 30.4708 22.5593ZM30.9588 23.6916C31.1458 23.5842 31.3012 23.4294 31.4093 23.2428C31.5173 23.0562 31.5742 22.8444 31.5742 22.6287C31.5742 22.4131 31.5173 22.2012 31.4093 22.0146C31.3012 21.828 31.1458 21.6732 30.9588 21.5658L18.3051 14.1289C17.4612 13.6332 16.3886 14.2276 16.3886 15.1918L16.3886 30.0646C16.3886 31.0288 17.4623 31.6242 18.3051 31.1275L30.9588 23.6916Z" fill="black"/>
</svg>
