<svg width="25" height="20" viewBox="0 0 25 20" fill="none" xmlns="http://www.w3.org/2000/svg">
<g clip-path="url(#clip0_1101_960)">
<path fill-rule="evenodd" clip-rule="evenodd" d="M22.0555 5.80666C22.1263 5.86472 22.1825 5.93369 22.2208 6.00962C22.2591 6.08555 22.2788 6.16695 22.2788 6.24916C22.2788 6.33137 22.2591 6.41277 22.2208 6.48871C22.1825 6.56464 22.1263 6.63361 22.0555 6.69166L12.9363 14.1917C12.8658 14.2499 12.7819 14.296 12.6896 14.3276C12.5972 14.3591 12.4983 14.3753 12.3983 14.3753C12.2984 14.3753 12.1994 14.3591 12.1071 14.3276C12.0147 14.296 11.9309 14.2499 11.8603 14.1917L2.74108 6.69166C2.59838 6.57431 2.51822 6.41513 2.51822 6.24916C2.51822 6.08319 2.59838 5.92402 2.74108 5.80666C2.88377 5.68931 3.07731 5.62337 3.27911 5.62337C3.48091 5.62337 3.67445 5.68931 3.81714 5.80666L12.3983 12.8654L20.9795 5.80666C21.0501 5.74846 21.1339 5.70228 21.2263 5.67077C21.3186 5.63926 21.4176 5.62305 21.5175 5.62305C21.6175 5.62305 21.7164 5.63926 21.8088 5.67077C21.9011 5.70228 21.985 5.74846 22.0555 5.80666Z" fill="#AC8B55"/>
</g>
<defs>
<clipPath id="clip0_1101_960">
<rect width="20" height="24.3179" fill="white" transform="translate(24.5573) rotate(90)"/>
</clipPath>
</defs>
</svg>
